<svg id="Iconly_Bold_Bag" data-name="Iconly/Bold/Bag" xmlns="http://www.w3.org/2000/svg" width="27" height="27" viewBox="0 0 27 27">
  <g id="Bag" transform="translate(3 2)">
    <path id="Bag-2" data-name="Bag" d="M14.624,23H5.413c-2.122,0-3.575-.5-4.442-1.537S-.184,18.819.113,16.676L.979,9.788A4.482,4.482,0,0,1,2.335,7.109,3.052,3.052,0,0,1,4.39,6.316V6.051A5.84,5.84,0,0,1,7.135.82a5.5,5.5,0,0,1,5.778,0,5.87,5.87,0,0,1,2.744,5.231v.265a2.958,2.958,0,0,1,2.028.814,4.856,4.856,0,0,1,1.361,2.658l.855,6.888a5.76,5.76,0,0,1-.952,4.649A5.411,5.411,0,0,1,14.624,23ZM13.213,10.019a1.012,1.012,0,0,0,0,2.023.927.927,0,0,0,.688-.3,1.015,1.015,0,0,0-.688-1.724Zm-6.445,0a1.012,1.012,0,1,0,.978,1.011A.984.984,0,0,0,6.768,10.019ZM10,2A3.991,3.991,0,0,0,6.079,6.051v.255h7.856V6.051A4,4,0,0,0,10,2Z" transform="translate(0)" fill="#b3b3b3"/>
  </g>
</svg>
