<svg id="Iconly_Bold_Document" data-name="Iconly/Bold/Document" xmlns="http://www.w3.org/2000/svg" width="19" height="21" viewBox="0 0 19 21">
  <g id="Document" transform="translate(0.125 0.083)">
    <path id="Document-2" data-name="Document" d="M13.924,21H5.077C1.85,21,0,19.148,0,15.918V5.072A5.139,5.139,0,0,1,1.335,1.335,5.149,5.149,0,0,1,5.077,0h8.847C17.15,0,19,1.849,19,5.072V15.918a5.12,5.12,0,0,1-1.315,3.762A5.1,5.1,0,0,1,13.924,21ZM5.276,14.423a.83.83,0,0,0-.017,1.659.743.743,0,0,0,.1-.007h8.276a.829.829,0,0,0,0-1.648H5.362A.848.848,0,0,0,5.276,14.423Zm.086-4.785a.819.819,0,1,0,0,1.639h8.276a.819.819,0,1,0,0-1.639Zm0-4.755v.01h0a.818.818,0,1,0,0,1.637H8.518a.824.824,0,0,0,0-1.648Z" transform="translate(-0.125 -0.083)" fill="#b3b3b3"/>
  </g>
</svg>
